<mxfile host="app.diagrams.net" modified="2023-02-01T18:56:43.621Z" agent="5.0 (Windows NT 10.0; Win64; x64) AppleWebKit/537.36 (KHTML, like Gecko) Chrome/109.0.0.0 Safari/537.36" etag="f58Z8XqJ8EtRBEkkMuAx" version="20.8.15" type="github">
  <diagram name="Page-1" id="gjRtCjLG57v5kRK7pX_5">
    <mxGraphModel dx="1050" dy="581" grid="1" gridSize="10" guides="1" tooltips="1" connect="1" arrows="1" fold="1" page="1" pageScale="1" pageWidth="850" pageHeight="1100" math="0" shadow="0">
      <root>
        <mxCell id="0" />
        <mxCell id="1" parent="0" />
        <mxCell id="L9wrOSnK4W0b_78jbhyV-1" style="edgeStyle=orthogonalEdgeStyle;rounded=0;orthogonalLoop=1;jettySize=auto;html=1;exitX=0.5;exitY=1;exitDx=0;exitDy=0;entryX=0.5;entryY=0;entryDx=0;entryDy=0;" edge="1" parent="1" source="L9wrOSnK4W0b_78jbhyV-2" target="L9wrOSnK4W0b_78jbhyV-4">
          <mxGeometry relative="1" as="geometry" />
        </mxCell>
        <mxCell id="L9wrOSnK4W0b_78jbhyV-2" value="Enter Hospital" style="ellipse;whiteSpace=wrap;html=1;fillColor=#d5e8d4;strokeColor=#82b366;" vertex="1" parent="1">
          <mxGeometry x="220" y="40" width="120" height="60" as="geometry" />
        </mxCell>
        <mxCell id="L9wrOSnK4W0b_78jbhyV-3" style="edgeStyle=orthogonalEdgeStyle;rounded=0;orthogonalLoop=1;jettySize=auto;html=1;exitX=0.5;exitY=1;exitDx=0;exitDy=0;entryX=0.5;entryY=0;entryDx=0;entryDy=0;" edge="1" parent="1" source="L9wrOSnK4W0b_78jbhyV-4" target="L9wrOSnK4W0b_78jbhyV-6">
          <mxGeometry relative="1" as="geometry" />
        </mxCell>
        <mxCell id="L9wrOSnK4W0b_78jbhyV-4" value="Takes Appointment" style="ellipse;whiteSpace=wrap;html=1;fillColor=#d5e8d4;strokeColor=#82b366;" vertex="1" parent="1">
          <mxGeometry x="200" y="150" width="160" height="60" as="geometry" />
        </mxCell>
        <mxCell id="L9wrOSnK4W0b_78jbhyV-5" value="" style="edgeStyle=orthogonalEdgeStyle;rounded=0;orthogonalLoop=1;jettySize=auto;html=1;" edge="1" parent="1" source="L9wrOSnK4W0b_78jbhyV-6" target="L9wrOSnK4W0b_78jbhyV-8">
          <mxGeometry relative="1" as="geometry" />
        </mxCell>
        <mxCell id="L9wrOSnK4W0b_78jbhyV-6" value="Undergo Diagnoses" style="ellipse;whiteSpace=wrap;html=1;fillColor=#d5e8d4;strokeColor=#82b366;" vertex="1" parent="1">
          <mxGeometry x="200" y="240" width="160" height="60" as="geometry" />
        </mxCell>
        <mxCell id="L9wrOSnK4W0b_78jbhyV-7" style="edgeStyle=orthogonalEdgeStyle;rounded=0;orthogonalLoop=1;jettySize=auto;html=1;exitX=0.5;exitY=1;exitDx=0;exitDy=0;entryX=0.5;entryY=0;entryDx=0;entryDy=0;" edge="1" parent="1" source="L9wrOSnK4W0b_78jbhyV-8" target="L9wrOSnK4W0b_78jbhyV-11">
          <mxGeometry relative="1" as="geometry" />
        </mxCell>
        <mxCell id="L9wrOSnK4W0b_78jbhyV-8" value="Takes Treatment" style="ellipse;whiteSpace=wrap;html=1;fillColor=#d5e8d4;strokeColor=#82b366;" vertex="1" parent="1">
          <mxGeometry x="200" y="350" width="160" height="60" as="geometry" />
        </mxCell>
        <mxCell id="L9wrOSnK4W0b_78jbhyV-9" style="edgeStyle=orthogonalEdgeStyle;rounded=0;orthogonalLoop=1;jettySize=auto;html=1;exitX=1;exitY=0;exitDx=0;exitDy=0;entryX=0.153;entryY=1.075;entryDx=0;entryDy=0;entryPerimeter=0;" edge="1" parent="1" source="L9wrOSnK4W0b_78jbhyV-11" target="L9wrOSnK4W0b_78jbhyV-15">
          <mxGeometry relative="1" as="geometry" />
        </mxCell>
        <mxCell id="L9wrOSnK4W0b_78jbhyV-10" style="edgeStyle=orthogonalEdgeStyle;rounded=0;orthogonalLoop=1;jettySize=auto;html=1;exitX=0.5;exitY=1;exitDx=0;exitDy=0;entryX=0.5;entryY=0;entryDx=0;entryDy=0;" edge="1" parent="1" source="L9wrOSnK4W0b_78jbhyV-11" target="L9wrOSnK4W0b_78jbhyV-13">
          <mxGeometry relative="1" as="geometry" />
        </mxCell>
        <mxCell id="L9wrOSnK4W0b_78jbhyV-11" value="Undergo lab tests and buy medicines" style="ellipse;whiteSpace=wrap;html=1;fillColor=#d5e8d4;strokeColor=#82b366;" vertex="1" parent="1">
          <mxGeometry x="160" y="440" width="240" height="60" as="geometry" />
        </mxCell>
        <mxCell id="L9wrOSnK4W0b_78jbhyV-12" style="edgeStyle=orthogonalEdgeStyle;rounded=0;orthogonalLoop=1;jettySize=auto;html=1;exitX=1;exitY=0.5;exitDx=0;exitDy=0;entryX=0;entryY=0.5;entryDx=0;entryDy=0;" edge="1" parent="1" source="L9wrOSnK4W0b_78jbhyV-13" target="L9wrOSnK4W0b_78jbhyV-16">
          <mxGeometry relative="1" as="geometry" />
        </mxCell>
        <mxCell id="L9wrOSnK4W0b_78jbhyV-13" value="Gets cured" style="rounded=1;whiteSpace=wrap;html=1;fillColor=#d5e8d4;strokeColor=#82b366;" vertex="1" parent="1">
          <mxGeometry x="220" y="530" width="120" height="40" as="geometry" />
        </mxCell>
        <mxCell id="L9wrOSnK4W0b_78jbhyV-14" style="edgeStyle=orthogonalEdgeStyle;rounded=0;orthogonalLoop=1;jettySize=auto;html=1;exitX=0.25;exitY=0;exitDx=0;exitDy=0;entryX=1;entryY=0.5;entryDx=0;entryDy=0;" edge="1" parent="1" source="L9wrOSnK4W0b_78jbhyV-15" target="L9wrOSnK4W0b_78jbhyV-6">
          <mxGeometry relative="1" as="geometry" />
        </mxCell>
        <mxCell id="L9wrOSnK4W0b_78jbhyV-15" value="not cured" style="rounded=1;whiteSpace=wrap;html=1;fillColor=#d5e8d4;strokeColor=#82b366;" vertex="1" parent="1">
          <mxGeometry x="450" y="310" width="120" height="40" as="geometry" />
        </mxCell>
        <mxCell id="L9wrOSnK4W0b_78jbhyV-16" value="" style="ellipse;html=1;shape=endState;fillColor=#000000;strokeColor=#ff0000;" vertex="1" parent="1">
          <mxGeometry x="440" y="535" width="30" height="30" as="geometry" />
        </mxCell>
      </root>
    </mxGraphModel>
  </diagram>
</mxfile>
